<svg xmlns="http://www.w3.org/2000/svg" width="195.675" height="22.787" viewBox="0 0 195.675 22.787"><path fill="#EA5124" d="M0 1.05h5.403c1.015 0 2.024.06 3.03.178 1.007.12 1.906.38 2.703.776.795.4 1.44.98 1.94 1.748.497.765.747 1.806.747 3.12 0 1.552-.468 2.806-1.404 3.762-.936.955-2.23 1.56-3.882 1.82l6.002 9.733h-3.076l-5.73-9.494H2.507v9.494H0V1.05zm2.508 9.313h2.238c.697 0 1.418-.02 2.164-.06a7.402 7.402 0 0 0 2.062-.385 3.62 3.62 0 0 0 1.552-1.032c.407-.466.612-1.14.612-2.014 0-.757-.15-1.364-.448-1.823a3.031 3.031 0 0 0-1.178-1.06 5.081 5.081 0 0 0-1.643-.492c-.607-.08-1.22-.12-1.837-.12H2.508v6.985zM28.96 19.65c-.835 1.076-1.75 1.826-2.747 2.254-.993.428-2.147.64-3.463.64-1.096 0-2.08-.193-2.955-.58-.877-.386-1.617-.91-2.225-1.568s-1.074-1.432-1.404-2.328a8.257 8.257 0 0 1-.492-2.865c0-1.076.18-2.067.537-2.973.36-.906.856-1.68 1.495-2.328a6.721 6.721 0 0 1 2.27-1.508 7.517 7.517 0 0 1 2.865-.538c.976 0 1.87.165 2.688.493a5.836 5.836 0 0 1 2.105 1.433c.587.625 1.04 1.392 1.357 2.3.32.903.48 1.934.48 3.09v.745H18.182c.04.597.185 1.17.433 1.717.248.548.572 1.025.97 1.433.397.408.866.73 1.404.97.536.24 1.123.358 1.76.358 1.018 0 1.872-.18 2.57-.537.695-.36 1.323-.886 1.88-1.583l1.76 1.373zm-2-5.703c-.04-1.193-.427-2.148-1.163-2.865-.737-.72-1.752-1.076-3.047-1.076s-2.338.357-3.135 1.076c-.797.717-1.273 1.672-1.433 2.865h8.78zm5.673 4.568c.46.578.96 1.035 1.508 1.375.55.338 1.24.506 2.077.506a5.1 5.1 0 0 0 1.088-.12c.37-.08.703-.208 1-.386.3-.182.54-.404.718-.674.18-.27.27-.592.27-.97s-.087-.686-.255-.924a2.228 2.228 0 0 0-.672-.614c-.28-.168-.596-.302-.955-.402s-.728-.19-1.104-.27a23.65 23.65 0 0 1-1.88-.476c-.6-.18-1.12-.412-1.568-.703a3.292 3.292 0 0 1-1.075-1.12c-.268-.456-.402-1.044-.402-1.76 0-.677.15-1.273.448-1.792a3.9 3.9 0 0 1 1.195-1.283 5.797 5.797 0 0 1 1.673-.778 6.848 6.848 0 0 1 1.91-.268c.995 0 1.916.2 2.76.596.847.4 1.51 1.045 1.987 1.942l-1.94 1.285c-.3-.5-.692-.9-1.18-1.212-.488-.308-1.08-.463-1.777-.463-.317 0-.64.04-.97.12-.328.08-.62.2-.88.36-.26.158-.474.362-.642.61-.172.25-.256.532-.256.852 0 .298.094.55.284.76.188.21.45.394.776.552.328.16.707.3 1.135.42.428.118.87.218 1.33.296.615.12 1.2.275 1.76.465.56.188 1.045.442 1.463.762.418.32.746.715.986 1.194.238.476.357 1.064.357 1.762 0 .796-.16 1.472-.478 2.03a3.97 3.97 0 0 1-1.27 1.356 5.498 5.498 0 0 1-1.793.762 8.74 8.74 0 0 1-2.044.238c-1.195 0-2.226-.183-3.092-.55-.865-.37-1.646-1.05-2.344-2.045l1.853-1.435zm23.855.358c0 .64.02 1.236.06 1.793.04.557.06 1.065.06 1.52h-2.21c0-.375-.01-.754-.028-1.13-.02-.38-.03-.77-.03-1.165h-.06c-.16.338-.383.665-.672.985-.29.318-.633.602-1.03.852a5.54 5.54 0 0 1-2.955.818c-.915 0-1.707-.14-2.373-.416a4.521 4.521 0 0 1-1.66-1.165c-.437-.498-.76-1.102-.968-1.807a8.168 8.168 0 0 1-.314-2.314v-8.63h2.328v8.392c0 1.173.26 2.1.778 2.775.516.68 1.323 1.016 2.418 1.016.757 0 1.407-.128 1.955-.386.547-.26.995-.63 1.344-1.108.35-.476.607-1.045.777-1.7a8.8 8.8 0 0 0 .252-2.18V8.214h2.33v10.658zm3.672-7.345c0-.636-.02-1.233-.06-1.79-.04-.557-.06-1.065-.06-1.524h2.21c0 .378.01.758.03 1.135.02.377.03.765.03 1.164h.058c.16-.34.385-.667.674-.987.287-.316.63-.6 1.03-.85a5.456 5.456 0 0 1 1.343-.595 5.482 5.482 0 0 1 1.61-.226c.757 0 1.39.097 1.898.284.508.19.93.418 1.27.688.337.267.6.557.79.864.187.31.344.583.463.822.518-.836 1.113-1.487 1.79-1.956.677-.466 1.554-.702 2.628-.702.995 0 1.832.136 2.508.404.677.267 1.225.658 1.643 1.164.418.507.717 1.125.895 1.85.182.728.27 1.538.27 2.435v8.477h-2.33v-8.36c0-.476-.048-.945-.148-1.403a3.226 3.226 0 0 0-.537-1.223 2.808 2.808 0 0 0-1.045-.866c-.437-.22-.996-.328-1.672-.328-.498 0-.967.1-1.402.298-.438.2-.82.48-1.15.836-.328.36-.587.79-.775 1.3a4.823 4.823 0 0 0-.282 1.687v8.06h-2.33v-7.91c0-1.553-.21-2.652-.627-3.3-.417-.647-1.104-.97-2.06-.97-.756 0-1.408.13-1.955.387-.55.26-.996.627-1.344 1.105-.347.476-.606 1.045-.774 1.7a8.71 8.71 0 0 0-.256 2.18v6.807h-2.33v-10.66zm37.172 8.122c-.836 1.076-1.752 1.826-2.746 2.254-.996.428-2.15.64-3.463.64-1.097 0-2.082-.193-2.957-.58-.877-.386-1.617-.91-2.225-1.568s-1.073-1.432-1.4-2.328a8.21 8.21 0 0 1-.493-2.865c0-1.076.18-2.067.535-2.973.36-.906.857-1.68 1.494-2.328a6.731 6.731 0 0 1 2.27-1.508c.876-.357 1.83-.538 2.867-.538.974 0 1.87.165 2.687.493a5.823 5.823 0 0 1 2.104 1.433c.586.625 1.04 1.392 1.357 2.3.32.903.48 1.934.48 3.09v.745H86.555c.04.597.183 1.17.432 1.717.248.548.573 1.025.97 1.433.398.408.868.73 1.404.97.538.24 1.125.358 1.764.358 1.016 0 1.87-.18 2.566-.537.698-.36 1.324-.886 1.88-1.583l1.762 1.373zm-2-5.703c-.04-1.193-.43-2.148-1.164-2.865-.737-.72-1.752-1.076-3.045-1.076-1.295 0-2.34.357-3.137 1.076-.796.717-1.273 1.672-1.432 2.865h8.778zm33.814 1.91c.03 2.3 1.225 3.553 3.314 3.553 1.583 0 2.658-.598 3.225-1.762l3.913 1.584c-.925 2.21-3.345 3.524-6.838 3.524-5.375 0-8.51-3.315-8.51-7.766 0-4.448 3.312-8.003 8.21-8.003 4.778 0 7.883 3.226 7.883 8.632v.237h-11.197zm3.137-5.705c-1.675 0-2.72.926-3.018 2.777h5.972c-.177-1.702-1.402-2.778-2.954-2.778m9.507-2.687h4.75v2.986c1.4-2.418 3.073-3.464 5.642-3.464 1.912 0 3.464.658 4.36 1.792.986 1.254 1.074 2.868 1.074 4.99v8.42h-5.193v-7.884c0-2.3-.688-3.375-2.42-3.375-2.33 0-3.106 1.76-3.106 5.075v6.182h-5.105V7.464zM162.285 0a2.849 2.849 0 0 1 2.867 2.865c0 1.613-1.313 2.896-2.867 2.896-1.61 0-2.865-1.37-2.865-2.895 0-1.552 1.284-2.865 2.865-2.865m-2.598 7.465h5.197v14.723h-5.197V7.465zm22.329 7.524c0 2.3-.06 4.123-1.762 5.824-1.312 1.315-3.255 1.942-5.854 1.942-2.598 0-4.507-.627-5.88-1.942-1.647-1.582-1.733-3.433-1.733-5.824V7.465h4.958v7.855c0 2.3.625 3.492 2.596 3.492 1.974 0 2.6-1.193 2.6-3.492V7.465h5.076v7.525zm1.681 2c1.522 1.346 3.465 2.063 5.258 2.063 1.312 0 2-.45 2-1.225 0-1.225-1.193-1.225-3.136-1.733-3.05-.804-4.45-2.15-4.45-4.388 0-2.688 2.12-4.72 5.973-4.72 1.94 0 3.85.448 5.883 1.345l-1.077 3.584c-1.433-.986-2.866-1.435-4.24-1.435-1.195 0-1.793.39-1.793 1.076 0 1.016 1.315 1.077 3.375 1.704 2.81.834 4.184 2.09 4.184 4.45 0 2.956-2.42 5.046-6.332 5.046-2.54 0-4.72-.57-6.72-1.79l1.073-3.976zM122.86 9.903l-11.34.03.013 4.473 5.7-.016a6.193 6.193 0 0 1-5.482 3.344 6.202 6.202 0 0 1-6.217-6.183 6.2 6.2 0 0 1 6.184-6.216 6.184 6.184 0 0 1 4.893 2.38l4.574-2.277C119.174 2.33 115.68.27 111.704.28c-6.213.02-11.24 5.07-11.224 11.284.018 6.215 5.07 11.24 11.283 11.223 6.215-.018 11.24-5.067 11.225-11.28a12.066 12.066 0 0 0-.127-1.604"/></svg>